<svg width="1200" height="600" xmlns="http://www.w3.org/2000/svg">
  <defs>
    <linearGradient id="heroGradient" x1="0%" y1="0%" x2="100%" y2="100%">
      <stop offset="0%" style="stop-color:#f97316;stop-opacity:1" />
      <stop offset="50%" style="stop-color:#ea580c;stop-opacity:1" />
      <stop offset="100%" style="stop-color:#dc2626;stop-opacity:1" />
    </linearGradient>
    <pattern id="homePattern" x="0" y="0" width="100" height="100" patternUnits="userSpaceOnUse">
      <rect width="100" height="100" fill="rgba(255,255,255,0.05)"/>
      <path d="M20,50 L50,20 L80,50 L50,80 Z" fill="rgba(255,255,255,0.1)"/>
      <circle cx="30" cy="30" r="3" fill="rgba(255,255,255,0.15)"/>
      <circle cx="70" cy="70" r="2" fill="rgba(255,255,255,0.1)"/>
    </pattern>
  </defs>
  
  <rect width="1200" height="600" fill="url(#heroGradient)"/>
  <rect width="1200" height="600" fill="url(#homePattern)"/>
  
  <!-- Decorative elements representing household items -->
  <g opacity="0.2" fill="white">
    <!-- Kitchen utensils -->
    <rect x="100" y="100" width="8" height="40" rx="4"/>
    <circle cx="104" cy="90" r="12"/>
    
    <!-- Plates -->
    <circle cx="200" cy="150" r="25" fill="none" stroke="white" stroke-width="3"/>
    <circle cx="200" cy="150" r="15" fill="none" stroke="white" stroke-width="2"/>
    
    <!-- Cup -->
    <rect x="300" y="120" width="30" height="35" rx="15" fill="none" stroke="white" stroke-width="3"/>
    <path d="M330,130 Q340,130 340,140 Q340,150 330,150" fill="none" stroke="white" stroke-width="3"/>
    
    <!-- House icon -->
    <path d="M500,200 L450,250 L450,300 L550,300 L550,250 Z" fill="none" stroke="white" stroke-width="4"/>
    <path d="M430,250 L500,180 L570,250" fill="none" stroke="white" stroke-width="4"/>
    <rect x="470" y="270" width="15" height="20" fill="white"/>
    <rect x="510" y="260" width="12" height="12" fill="none" stroke="white" stroke-width="2"/>
    
    <!-- Decorative dots -->
    <circle cx="800" cy="120" r="4"/>
    <circle cx="850" cy="180" r="3"/>
    <circle cx="900" cy="140" r="5"/>
    <circle cx="950" cy="200" r="3"/>
    
    <!-- More household items -->
    <rect x="700" y="300" width="40" height="60" rx="5" fill="none" stroke="white" stroke-width="3"/>
    <rect x="710" y="310" width="20" height="8" fill="white"/>
    
    <!-- Lamp -->
    <rect x="1000" y="250" width="4" height="80" fill="white"/>
    <ellipse cx="1002" cy="240" rx="20" ry="15" fill="none" stroke="white" stroke-width="3"/>
  </g>
</svg>