<svg width="400" height="400" viewBox="0 0 400 400" fill="none" xmlns="http://www.w3.org/2000/svg">
<rect width="400" height="400" fill="#F3F4F6"/>
<path d="M200 120C177.909 120 160 137.909 160 160V240C160 262.091 177.909 280 200 280C222.091 280 240 262.091 240 240V160C240 137.909 222.091 120 200 120ZM200 140C211.046 140 220 148.954 220 160V240C220 251.046 211.046 260 200 260C188.954 260 180 251.046 180 240V160C180 148.954 188.954 140 200 140Z" fill="#9CA3AF"/>
<path d="M160 200H120C108.954 200 100 191.046 100 180C100 168.954 108.954 160 120 160H160V200Z" fill="#9CA3AF"/>
<path d="M240 200H280C291.046 200 300 191.046 300 180C300 168.954 291.046 160 280 160H240V200Z" fill="#9CA3AF"/>
<circle cx="200" cy="200" r="8" fill="#6B7280"/>
<text x="200" y="340" text-anchor="middle" fill="#6B7280" font-family="Arial, sans-serif" font-size="16">Product Image</text>
</svg>